{
  "asset": {
    "version": "2.0",
    "generator": "Sketchup glTF Exporter v1.2.6 by Centaur"
  },
  "scene": 0,
  "scenes": [
    {
      "nodes": [
        0
      ]
    }
  ],
  "samplers": [
    {
    }
  ],
  "nodes": [
    {
      "name": "root",
      "children": [
        1
      ]
    },
    {
      "children": [
        2,
        3,
        4
      ]
    },
    {
      "name": "house",
      "mesh": 0
    },
    {
      "name": "Derrick",
      "mesh": 1
    },
    {
      "name": "Sophie",
      "mesh": 2
    }
  ],
  "materials": [
    {
      "pbrMetallicRoughness": {
        "baseColorTexture": {
          "index": 0
        },
        "metallicFactor": 0.1,
        "roughnessFactor": 0.9
      },
      "name": "浅灰色石英"
    },
    {
      "pbrMetallicRoughness": {
        "baseColorTexture": {
          "index": 1
        },
        "metallicFactor": 0.1,
        "roughnessFactor": 0.9
      },
      "name": "凹形尖桩篱栅",
      "doubleSided": true
    },
    {
      "pbrMetallicRoughness": {
        "baseColorTexture": {
          "index": 2
        },
        "metallicFactor": 0.1,
        "roughnessFactor": 0.9
      },
      "name": "大理石 Carrera",
      "doubleSided": true
    },
    {
      "pbrMetallicRoughness": {
        "baseColorFactor": [
          0.1332,
          0.06,
          0.043,
          1.0
        ],
        "metallicFactor": 0.1,
        "roughnessFactor": 0.9
      },
      "name": "Derrick_Shoes",
      "doubleSided": true
    },
    {
      "pbrMetallicRoughness": {
        "baseColorFactor": [
          0.1975,
          0.1975,
          0.325,
          1.0
        ],
        "metallicFactor": 0.1,
        "roughnessFactor": 0.9
      },
      "name": "Derrick_Shirt",
      "doubleSided": true
    },
    {
      "pbrMetallicRoughness": {
        "baseColorFactor": [
          0.0915,
          0.0697,
          0.06,
          1.0
        ],
        "metallicFactor": 0.1,
        "roughnessFactor": 0.9
      },
      "name": "Derrick_Hair",
      "doubleSided": true
    },
    {
      "pbrMetallicRoughness": {
        "baseColorFactor": [
          0.0127,
          0.0127,
          0.0127,
          1.0
        ],
        "metallicFactor": 0.1,
        "roughnessFactor": 0.9
      },
      "name": "Derrick_Pager",
      "doubleSided": true
    },
    {
      "pbrMetallicRoughness": {
        "baseColorFactor": [
          0.2758,
          0.2758,
          0.2758,
          1.0
        ],
        "metallicFactor": 0.1,
        "roughnessFactor": 0.9
      },
      "name": "Derrick_Sweater",
      "doubleSided": true
    },
    {
      "pbrMetallicRoughness": {
        "baseColorFactor": [
          0.7667,
          0.7667,
          0.7667,
          1.0
        ],
        "metallicFactor": 0.1,
        "roughnessFactor": 0.9
      },
      "name": "Derrick_T-shirt",
      "doubleSided": true
    },
    {
      "pbrMetallicRoughness": {
        "baseColorFactor": [
          0.325,
          0.2549,
          0.1975,
          1.0
        ],
        "metallicFactor": 0.1,
        "roughnessFactor": 0.9
      },
      "name": "Derrick_Pants",
      "doubleSided": true
    },
    {
      "pbrMetallicRoughness": {
        "baseColorFactor": [
          0.6524,
          0.4647,
          0.2674,
          1.0
        ],
        "metallicFactor": 0.1,
        "roughnessFactor": 0.9
      },
      "name": "Derrick",
      "doubleSided": true
    },
    {
      "pbrMetallicRoughness": {
        "baseColorFactor": [
          0.4704,
          0.3158,
          0.1511,
          1.0
        ],
        "metallicFactor": 0.1,
        "roughnessFactor": 0.9
      },
      "name": "Sophie_Skin",
      "doubleSided": true
    },
    {
      "pbrMetallicRoughness": {
        "baseColorFactor": [
          0.0127,
          0.0127,
          0.0127,
          1.0
        ],
        "metallicFactor": 0.1,
        "roughnessFactor": 0.9
      },
      "name": "Sophie_Shoes2",
      "doubleSided": true
    },
    {
      "pbrMetallicRoughness": {
        "baseColorFactor": [
          0.1166,
          0.1166,
          0.1166,
          1.0
        ],
        "metallicFactor": 0.1,
        "roughnessFactor": 0.9
      },
      "name": "Sophie_Shirt_Gray",
      "doubleSided": true
    },
    {
      "pbrMetallicRoughness": {
        "baseColorFactor": [
          0.0,
          0.0,
          0.0,
          1.0
        ],
        "metallicFactor": 0.1,
        "roughnessFactor": 0.9
      },
      "name": "Sophie_Skirt",
      "doubleSided": true
    },
    {
      "pbrMetallicRoughness": {
        "baseColorFactor": [
          0.029,
          0.022,
          0.017,
          1.0
        ],
        "metallicFactor": 0.1,
        "roughnessFactor": 0.9
      },
      "name": "Sophie_Shoes",
      "doubleSided": true
    },
    {
      "pbrMetallicRoughness": {
        "baseColorFactor": [
          0.0004,
          0.0001,
          0.0,
          1.0
        ],
        "metallicFactor": 0.1,
        "roughnessFactor": 0.9
      },
      "name": "Sophie_Hair",
      "doubleSided": true
    }
  ],
  "images": [
    {
      "bufferView": 0,
      "mimeType": "image/jpeg"
    },
    {
      "bufferView": 1,
      "mimeType": "image/png"
    },
    {
      "bufferView": 2,
      "mimeType": "image/jpeg"
    }
  ],
  "textures": [
    {
      "source": 0,
      "sampler": 0
    },
    {
      "source": 1,
      "sampler": 0
    },
    {
      "source": 2,
      "sampler": 0
    }
  ],
  "meshes": [
    {
      "primitives": [
        {
          "attributes": {
            "POSITION": 2,
            "NORMAL": 3,
            "TEXCOORD_0": 4
          },
          "indices": 5,
          "mode": 4,
          "material": 0
        },
        {
          "attributes": {
            "POSITION": 2,
            "NORMAL": 3,
            "TEXCOORD_0": 4
          },
          "indices": 6,
          "mode": 4,
          "material": 1
        },
        {
          "attributes": {
            "POSITION": 2,
            "NORMAL": 3,
            "TEXCOORD_0": 4
          },
          "indices": 7,
          "mode": 4,
          "material": 2
        }
      ]
    },
    {
      "primitives": [
        {
          "attributes": {
            "POSITION": 0,
            "NORMAL": 1
          },
          "indices": 8,
          "mode": 4,
          "material": 3
        },
        {
          "attributes": {
            "POSITION": 0,
            "NORMAL": 1
          },
          "indices": 9,
          "mode": 4,
          "material": 4
        },
        {
          "attributes": {
            "POSITION": 0,
            "NORMAL": 1
          },
          "indices": 10,
          "mode": 4,
          "material": 5
        },
        {
          "attributes": {
            "POSITION": 0,
            "NORMAL": 1
          },
          "indices": 11,
          "mode": 4,
          "material": 6
        },
        {
          "attributes": {
            "POSITION": 0,
            "NORMAL": 1
          },
          "indices": 12,
          "mode": 4,
          "material": 7
        },
        {
          "attributes": {
            "POSITION": 0,
            "NORMAL": 1
          },
          "indices": 13,
          "mode": 4,
          "material": 8
        },
        {
          "attributes": {
            "POSITION": 0,
            "NORMAL": 1
          },
          "indices": 14,
          "mode": 4,
          "material": 9
        },
        {
          "attributes": {
            "POSITION": 0,
            "NORMAL": 1
          },
          "indices": 15,
          "mode": 4,
          "material": 10
        }
      ]
    },
    {
      "primitives": [
        {
          "attributes": {
            "POSITION": 0,
            "NORMAL": 1
          },
          "indices": 16,
          "mode": 4,
          "material": 11
        },
        {
          "attributes": {
            "POSITION": 0,
            "NORMAL": 1
          },
          "indices": 17,
          "mode": 4,
          "material": 12
        },
        {
          "attributes": {
            "POSITION": 0,
            "NORMAL": 1
          },
          "indices": 18,
          "mode": 4,
          "material": 13
        },
        {
          "attributes": {
            "POSITION": 0,
            "NORMAL": 1
          },
          "indices": 19,
          "mode": 4,
          "material": 14
        },
        {
          "attributes": {
            "POSITION": 0,
            "NORMAL": 1
          },
          "indices": 20,
          "mode": 4,
          "material": 15
        },
        {
          "attributes": {
            "POSITION": 0,
            "NORMAL": 1
          },
          "indices": 21,
          "mode": 4,
          "material": 16
        }
      ]
    }
  ],
  "accessors": [
    {
      "bufferView": 3,
      "componentType": 5126,
      "count": 1485,
      "type": "VEC3",
      "min": [
        -7.381493532923269,
        -4.478130284789061e-16,
        -7.494450048592925
      ],
      "max": [
        -6.153534250005468,
        1.754892327565254,
        -6.583622537854704
      ]
    },
    {
      "bufferView": 4,
      "componentType": 5126,
      "count": 1485,
      "type": "VEC3",
      "min": [
        0.9999995179122749,
        -2.283101337097548e-13,
        0.0009819093407763438
      ],
      "max": [
        0.999999517926907,
        1.1802960329273326e-13,
        0.0009819242424043847
      ]
    },
    {
      "bufferView": 5,
      "componentType": 5126,
      "count": 232,
      "type": "VEC3",
      "min": [
        -20.20394620393113,
        -0.03000000000001021,
        -18.744732889557525
      ],
      "max": [
        1.0300000000000047,
        6.78,
        6.685267110442479
      ]
    },
    {
      "bufferView": 6,
      "componentType": 5126,
      "count": 232,
      "type": "VEC3",
      "min": [
        -1.0,
        -1.0,
        -1.0
      ],
      "max": [
        1.0,
        6.123233995736766e-17,
        1.0
      ]
    },
    {
      "bufferView": 7,
      "componentType": 5126,
      "count": 232,
      "type": "VEC2",
      "min": [
        -1001.1811023622048,
        -1000.1811023622048
      ],
      "max": [
        998.6476773179451,
        2.1811023622048973
      ]
    },
    {
      "bufferView": 9,
      "componentType": 5121,
      "count": 342,
      "type": "SCALAR"
    },
    {
      "bufferView": 9,
      "componentType": 5121,
      "count": 48,
      "type": "SCALAR",
      "byteOffset": 342
    },
    {
      "bufferView": 9,
      "componentType": 5121,
      "count": 36,
      "type": "SCALAR",
      "byteOffset": 390
    },
    {
      "bufferView": 8,
      "componentType": 5123,
      "count": 333,
      "type": "SCALAR"
    },
    {
      "bufferView": 8,
      "componentType": 5123,
      "count": 132,
      "type": "SCALAR",
      "byteOffset": 666
    },
    {
      "bufferView": 8,
      "componentType": 5123,
      "count": 222,
      "type": "SCALAR",
      "byteOffset": 930
    },
    {
      "bufferView": 8,
      "componentType": 5123,
      "count": 216,
      "type": "SCALAR",
      "byteOffset": 1374
    },
    {
      "bufferView": 8,
      "componentType": 5123,
      "count": 543,
      "type": "SCALAR",
      "byteOffset": 1806
    },
    {
      "bufferView": 8,
      "componentType": 5123,
      "count": 27,
      "type": "SCALAR",
      "byteOffset": 2892
    },
    {
      "bufferView": 8,
      "componentType": 5123,
      "count": 522,
      "type": "SCALAR",
      "byteOffset": 2946
    },
    {
      "bufferView": 8,
      "componentType": 5123,
      "count": 363,
      "type": "SCALAR",
      "byteOffset": 3990
    },
    {
      "bufferView": 8,
      "componentType": 5123,
      "count": 891,
      "type": "SCALAR",
      "byteOffset": 4716
    },
    {
      "bufferView": 8,
      "componentType": 5123,
      "count": 93,
      "type": "SCALAR",
      "byteOffset": 6498
    },
    {
      "bufferView": 8,
      "componentType": 5123,
      "count": 345,
      "type": "SCALAR",
      "byteOffset": 6684
    },
    {
      "bufferView": 8,
      "componentType": 5123,
      "count": 129,
      "type": "SCALAR",
      "byteOffset": 7374
    },
    {
      "bufferView": 8,
      "componentType": 5123,
      "count": 69,
      "type": "SCALAR",
      "byteOffset": 7632
    },
    {
      "bufferView": 8,
      "componentType": 5123,
      "count": 246,
      "type": "SCALAR",
      "byteOffset": 7770
    }
  ],
  "bufferViews": [
    {
      "buffer": 0,
      "byteLength": 9585
    },
    {
      "buffer": 0,
      "byteOffset": 9585,
      "byteLength": 44299
    },
    {
      "buffer": 0,
      "byteOffset": 53884,
      "byteLength": 45062
    },
    {
      "buffer": 0,
      "byteOffset": 98952,
      "byteLength": 17820,
      "target": 34962,
      "byteStride": 12
    },
    {
      "buffer": 0,
      "byteOffset": 116772,
      "byteLength": 17820,
      "target": 34962,
      "byteStride": 12
    },
    {
      "buffer": 0,
      "byteOffset": 134592,
      "byteLength": 2784,
      "target": 34962,
      "byteStride": 12
    },
    {
      "buffer": 0,
      "byteOffset": 137376,
      "byteLength": 2784,
      "target": 34962,
      "byteStride": 12
    },
    {
      "buffer": 0,
      "byteOffset": 140160,
      "byteLength": 1856,
      "target": 34962,
      "byteStride": 8
    },
    {
      "buffer": 0,
      "byteOffset": 142016,
      "byteLength": 8262,
      "target": 34963
    },
    {
      "buffer": 0,
      "byteOffset": 150278,
      "byteLength": 426,
      "target": 34963
    }
  ],
  "buffers": [
    {
      "uri": "data:application/octet-stream;base64,",
      "byteLength": 150704
    }
  ]
}