{
  "asset": {
    "version": "2.0",
    "generator": "Sketchup glTF Exporter v1.2.6 by Centaur"
  },
  "scene": 0,
  "scenes": [
    {
      "nodes": [
        0
      ]
    }
  ],
  "samplers": [
    {
    }
  ],
  "nodes": [
    {
      "name": "root",
      "children": [
        1
      ]
    },
    {
      "children": [
        2,
        4
      ]
    },
    {
      "name": "room1",
      "children": [
        3
      ],
      "mesh": 1
    },
    {
      "name": "Stacy",
      "mesh": 0
    },
    {
      "name": "room",
      "children": [
        5,
        6
      ],
      "mesh": 20
    },
    {
      "name": "Derrick",
      "mesh": 2
    },
    {
      "name": "Bed",
      "children": [
        7,
        8,
        9,
        10,
        11,
        12,
        13,
        23,
        24,
        25,
        26,
        27
      ]
    },
    {
      "name": "BedLeg",
      "mesh": 3
    },
    {
      "name": "BedLeg",
      "mesh": 4
    },
    {
      "name": "BedFrameHeadboard",
      "mesh": 5
    },
    {
      "name": "BedLeg",
      "mesh": 6
    },
    {
      "name": "BedLeg",
      "mesh": 7
    },
    {
      "name": "BedFrameBase",
      "mesh": 8
    },
    {
      "name": "Mattress",
      "children": [
        14,
        15,
        16,
        17,
        18,
        19,
        20,
        21,
        22
      ]
    },
    {
      "name": "MatressCorner",
      "mesh": 9
    },
    {
      "name": "MattressBottom",
      "mesh": 10
    },
    {
      "name": "MatressCorner",
      "mesh": 11
    },
    {
      "name": "MattressSide",
      "mesh": 12
    },
    {
      "name": "MatressCorner",
      "mesh": 13
    },
    {
      "name": "MattressSide",
      "mesh": 14
    },
    {
      "name": "MattressBottom",
      "mesh": 15
    },
    {
      "name": "MatressCorner",
      "mesh": 16
    },
    {
      "name": "MattressInside",
      "mesh": 17
    },
    {
      "name": "Pillow",
      "mesh": 18
    },
    {
      "name": "Pillow",
      "mesh": 19
    },
    {
      "name": "stripe"
    },
    {
      "name": "stripe"
    },
    {
      "name": "StripeTop"
    }
  ],
  "materials": [
    {
      "pbrMetallicRoughness": {
        "baseColorFactor": [
          0.6524,
          0.4647,
          0.2674,
          1.0
        ],
        "metallicFactor": 0.1,
        "roughnessFactor": 0.9
      },
      "name": "Stacy_Skin",
      "doubleSided": true
    },
    {
      "pbrMetallicRoughness": {
        "baseColorFactor": [
          0.1332,
          0.1332,
          0.1332,
          1.0
        ],
        "metallicFactor": 0.1,
        "roughnessFactor": 0.9
      },
      "name": "Stacy_Shirt",
      "doubleSided": true
    },
    {
      "pbrMetallicRoughness": {
        "baseColorFactor": [
          0.7969,
          0.0199,
          0.021,
          1.0
        ],
        "metallicFactor": 0.1,
        "roughnessFactor": 0.9
      },
      "name": "Stacy_Shoe",
      "doubleSided": true
    },
    {
      "pbrMetallicRoughness": {
        "baseColorFactor": [
          0.7667,
          0.7667,
          0.7667,
          1.0
        ],
        "metallicFactor": 0.1,
        "roughnessFactor": 0.9
      },
      "name": "Stacy_Shoe_Laces_Sole",
      "doubleSided": true
    },
    {
      "pbrMetallicRoughness": {
        "baseColorFactor": [
          0.0135,
          0.0033,
          0.0004,
          1.0
        ],
        "metallicFactor": 0.1,
        "roughnessFactor": 0.9
      },
      "name": "Stacy_Hair",
      "doubleSided": true
    },
    {
      "pbrMetallicRoughness": {
        "baseColorFactor": [
          0.017,
          0.0385,
          0.1113,
          1.0
        ],
        "metallicFactor": 0.1,
        "roughnessFactor": 0.9
      },
      "name": "Stacy_Pants",
      "doubleSided": true
    },
    {
      "pbrMetallicRoughness": {
        "baseColorFactor": [
          1.0,
          0.9574,
          0.8751,
          1.0
        ],
        "metallicFactor": 0.1,
        "roughnessFactor": 0.9
      },
      "name": "0052 花白色"
    },
    {
      "pbrMetallicRoughness": {
        "baseColorFactor": [
          0.1332,
          0.06,
          0.043,
          1.0
        ],
        "metallicFactor": 0.1,
        "roughnessFactor": 0.9
      },
      "name": "Derrick_Shoes",
      "doubleSided": true
    },
    {
      "pbrMetallicRoughness": {
        "baseColorFactor": [
          0.1975,
          0.1975,
          0.325,
          1.0
        ],
        "metallicFactor": 0.1,
        "roughnessFactor": 0.9
      },
      "name": "Derrick_Shirt",
      "doubleSided": true
    },
    {
      "pbrMetallicRoughness": {
        "baseColorFactor": [
          0.0915,
          0.0697,
          0.06,
          1.0
        ],
        "metallicFactor": 0.1,
        "roughnessFactor": 0.9
      },
      "name": "Derrick_Hair",
      "doubleSided": true
    },
    {
      "pbrMetallicRoughness": {
        "baseColorFactor": [
          0.0127,
          0.0127,
          0.0127,
          1.0
        ],
        "metallicFactor": 0.1,
        "roughnessFactor": 0.9
      },
      "name": "Derrick_Pager",
      "doubleSided": true
    },
    {
      "pbrMetallicRoughness": {
        "baseColorFactor": [
          0.2758,
          0.2758,
          0.2758,
          1.0
        ],
        "metallicFactor": 0.1,
        "roughnessFactor": 0.9
      },
      "name": "Derrick_Sweater",
      "doubleSided": true
    },
    {
      "pbrMetallicRoughness": {
        "baseColorFactor": [
          0.7667,
          0.7667,
          0.7667,
          1.0
        ],
        "metallicFactor": 0.1,
        "roughnessFactor": 0.9
      },
      "name": "Derrick_T-shirt",
      "doubleSided": true
    },
    {
      "pbrMetallicRoughness": {
        "baseColorFactor": [
          0.325,
          0.2549,
          0.1975,
          1.0
        ],
        "metallicFactor": 0.1,
        "roughnessFactor": 0.9
      },
      "name": "Derrick_Pants",
      "doubleSided": true
    },
    {
      "pbrMetallicRoughness": {
        "baseColorFactor": [
          0.6524,
          0.4647,
          0.2674,
          1.0
        ],
        "metallicFactor": 0.1,
        "roughnessFactor": 0.9
      },
      "name": "Derrick",
      "doubleSided": true
    },
    {
      "pbrMetallicRoughness": {
        "baseColorFactor": [
          0.2176,
          0.2176,
          0.2176,
          1.0
        ],
        "metallicFactor": 0.1,
        "roughnessFactor": 0.9
      },
      "name": "default material",
      "doubleSided": true
    }
  ],
  "meshes": [
    {
      "primitives": [
        {
          "attributes": {
            "POSITION": 0,
            "NORMAL": 1
          },
          "indices": 2,
          "mode": 4,
          "material": 0
        },
        {
          "attributes": {
            "POSITION": 0,
            "NORMAL": 1
          },
          "indices": 3,
          "mode": 4,
          "material": 1
        },
        {
          "attributes": {
            "POSITION": 0,
            "NORMAL": 1
          },
          "indices": 4,
          "mode": 4,
          "material": 2
        },
        {
          "attributes": {
            "POSITION": 0,
            "NORMAL": 1
          },
          "indices": 5,
          "mode": 4,
          "material": 3
        },
        {
          "attributes": {
            "POSITION": 0,
            "NORMAL": 1
          },
          "indices": 6,
          "mode": 4,
          "material": 4
        },
        {
          "attributes": {
            "POSITION": 0,
            "NORMAL": 1
          },
          "indices": 7,
          "mode": 4,
          "material": 5
        }
      ]
    },
    {
      "primitives": [
        {
          "attributes": {
            "POSITION": 0,
            "NORMAL": 1
          },
          "indices": 8,
          "mode": 4,
          "material": 6
        }
      ]
    },
    {
      "primitives": [
        {
          "attributes": {
            "POSITION": 0,
            "NORMAL": 1
          },
          "indices": 9,
          "mode": 4,
          "material": 7
        },
        {
          "attributes": {
            "POSITION": 0,
            "NORMAL": 1
          },
          "indices": 10,
          "mode": 4,
          "material": 8
        },
        {
          "attributes": {
            "POSITION": 0,
            "NORMAL": 1
          },
          "indices": 11,
          "mode": 4,
          "material": 9
        },
        {
          "attributes": {
            "POSITION": 0,
            "NORMAL": 1
          },
          "indices": 12,
          "mode": 4,
          "material": 10
        },
        {
          "attributes": {
            "POSITION": 0,
            "NORMAL": 1
          },
          "indices": 13,
          "mode": 4,
          "material": 11
        },
        {
          "attributes": {
            "POSITION": 0,
            "NORMAL": 1
          },
          "indices": 14,
          "mode": 4,
          "material": 12
        },
        {
          "attributes": {
            "POSITION": 0,
            "NORMAL": 1
          },
          "indices": 15,
          "mode": 4,
          "material": 13
        },
        {
          "attributes": {
            "POSITION": 0,
            "NORMAL": 1
          },
          "indices": 16,
          "mode": 4,
          "material": 14
        }
      ]
    },
    {
      "primitives": [
        {
          "attributes": {
            "POSITION": 0,
            "NORMAL": 1
          },
          "indices": 17,
          "mode": 4,
          "material": 15
        }
      ]
    },
    {
      "primitives": [
        {
          "attributes": {
            "POSITION": 0,
            "NORMAL": 1
          },
          "indices": 18,
          "mode": 4,
          "material": 15
        }
      ]
    },
    {
      "primitives": [
        {
          "attributes": {
            "POSITION": 0,
            "NORMAL": 1
          },
          "indices": 19,
          "mode": 4,
          "material": 15
        }
      ]
    },
    {
      "primitives": [
        {
          "attributes": {
            "POSITION": 0,
            "NORMAL": 1
          },
          "indices": 20,
          "mode": 4,
          "material": 15
        }
      ]
    },
    {
      "primitives": [
        {
          "attributes": {
            "POSITION": 0,
            "NORMAL": 1
          },
          "indices": 21,
          "mode": 4,
          "material": 15
        }
      ]
    },
    {
      "primitives": [
        {
          "attributes": {
            "POSITION": 0,
            "NORMAL": 1
          },
          "indices": 22,
          "mode": 4,
          "material": 15
        }
      ]
    },
    {
      "primitives": [
        {
          "attributes": {
            "POSITION": 0,
            "NORMAL": 1
          },
          "indices": 23,
          "mode": 4,
          "material": 15
        }
      ]
    },
    {
      "primitives": [
        {
          "attributes": {
            "POSITION": 0,
            "NORMAL": 1
          },
          "indices": 24,
          "mode": 4,
          "material": 15
        }
      ]
    },
    {
      "primitives": [
        {
          "attributes": {
            "POSITION": 0,
            "NORMAL": 1
          },
          "indices": 25,
          "mode": 4,
          "material": 15
        }
      ]
    },
    {
      "primitives": [
        {
          "attributes": {
            "POSITION": 0,
            "NORMAL": 1
          },
          "indices": 26,
          "mode": 4,
          "material": 15
        }
      ]
    },
    {
      "primitives": [
        {
          "attributes": {
            "POSITION": 0,
            "NORMAL": 1
          },
          "indices": 27,
          "mode": 4,
          "material": 15
        }
      ]
    },
    {
      "primitives": [
        {
          "attributes": {
            "POSITION": 0,
            "NORMAL": 1
          },
          "indices": 28,
          "mode": 4,
          "material": 15
        }
      ]
    },
    {
      "primitives": [
        {
          "attributes": {
            "POSITION": 0,
            "NORMAL": 1
          },
          "indices": 29,
          "mode": 4,
          "material": 15
        }
      ]
    },
    {
      "primitives": [
        {
          "attributes": {
            "POSITION": 0,
            "NORMAL": 1
          },
          "indices": 30,
          "mode": 4,
          "material": 15
        }
      ]
    },
    {
      "primitives": [
        {
          "attributes": {
            "POSITION": 0,
            "NORMAL": 1
          },
          "indices": 31,
          "mode": 4,
          "material": 15
        }
      ]
    },
    {
      "primitives": [
        {
          "attributes": {
            "POSITION": 0,
            "NORMAL": 1
          },
          "indices": 32,
          "mode": 4,
          "material": 15
        }
      ]
    },
    {
      "primitives": [
        {
          "attributes": {
            "POSITION": 0,
            "NORMAL": 1
          },
          "indices": 33,
          "mode": 4,
          "material": 15
        }
      ]
    },
    {
      "primitives": [
        {
          "attributes": {
            "POSITION": 0,
            "NORMAL": 1
          },
          "indices": 34,
          "mode": 4,
          "material": 6
        }
      ]
    }
  ],
  "accessors": [
    {
      "bufferView": 0,
      "componentType": 5126,
      "count": 3166,
      "type": "VEC3",
      "min": [
        -9.640000000000002,
        -2.1751651536796798e-17,
        -0.42016130504377125
      ],
      "max": [
        0.8589002464078583,
        1.9200000000000017,
        11.190000000000001
      ]
    },
    {
      "bufferView": 1,
      "componentType": 5126,
      "count": 3166,
      "type": "VEC3",
      "min": [
        -1.0,
        -1.0,
        -1.0
      ],
      "max": [
        1.0,
        1.0,
        1.0
      ]
    },
    {
      "bufferView": 2,
      "componentType": 5123,
      "count": 900,
      "type": "SCALAR"
    },
    {
      "bufferView": 2,
      "componentType": 5123,
      "count": 1536,
      "type": "SCALAR",
      "byteOffset": 1800
    },
    {
      "bufferView": 2,
      "componentType": 5123,
      "count": 585,
      "type": "SCALAR",
      "byteOffset": 4872
    },
    {
      "bufferView": 2,
      "componentType": 5123,
      "count": 921,
      "type": "SCALAR",
      "byteOffset": 6042
    },
    {
      "bufferView": 2,
      "componentType": 5123,
      "count": 363,
      "type": "SCALAR",
      "byteOffset": 7884
    },
    {
      "bufferView": 2,
      "componentType": 5123,
      "count": 489,
      "type": "SCALAR",
      "byteOffset": 8610
    },
    {
      "bufferView": 2,
      "componentType": 5123,
      "count": 132,
      "type": "SCALAR",
      "byteOffset": 9588
    },
    {
      "bufferView": 2,
      "componentType": 5123,
      "count": 333,
      "type": "SCALAR",
      "byteOffset": 9852
    },
    {
      "bufferView": 2,
      "componentType": 5123,
      "count": 132,
      "type": "SCALAR",
      "byteOffset": 10518
    },
    {
      "bufferView": 2,
      "componentType": 5123,
      "count": 222,
      "type": "SCALAR",
      "byteOffset": 10782
    },
    {
      "bufferView": 2,
      "componentType": 5123,
      "count": 216,
      "type": "SCALAR",
      "byteOffset": 11226
    },
    {
      "bufferView": 2,
      "componentType": 5123,
      "count": 543,
      "type": "SCALAR",
      "byteOffset": 11658
    },
    {
      "bufferView": 2,
      "componentType": 5123,
      "count": 27,
      "type": "SCALAR",
      "byteOffset": 12744
    },
    {
      "bufferView": 2,
      "componentType": 5123,
      "count": 522,
      "type": "SCALAR",
      "byteOffset": 12798
    },
    {
      "bufferView": 2,
      "componentType": 5123,
      "count": 363,
      "type": "SCALAR",
      "byteOffset": 13842
    },
    {
      "bufferView": 2,
      "componentType": 5123,
      "count": 30,
      "type": "SCALAR",
      "byteOffset": 14568
    },
    {
      "bufferView": 2,
      "componentType": 5123,
      "count": 30,
      "type": "SCALAR",
      "byteOffset": 14628
    },
    {
      "bufferView": 2,
      "componentType": 5123,
      "count": 150,
      "type": "SCALAR",
      "byteOffset": 14688
    },
    {
      "bufferView": 2,
      "componentType": 5123,
      "count": 30,
      "type": "SCALAR",
      "byteOffset": 14988
    },
    {
      "bufferView": 2,
      "componentType": 5123,
      "count": 30,
      "type": "SCALAR",
      "byteOffset": 15048
    },
    {
      "bufferView": 2,
      "componentType": 5123,
      "count": 30,
      "type": "SCALAR",
      "byteOffset": 15108
    },
    {
      "bufferView": 2,
      "componentType": 5123,
      "count": 150,
      "type": "SCALAR",
      "byteOffset": 15168
    },
    {
      "bufferView": 2,
      "componentType": 5123,
      "count": 36,
      "type": "SCALAR",
      "byteOffset": 15468
    },
    {
      "bufferView": 2,
      "componentType": 5123,
      "count": 150,
      "type": "SCALAR",
      "byteOffset": 15540
    },
    {
      "bufferView": 2,
      "componentType": 5123,
      "count": 36,
      "type": "SCALAR",
      "byteOffset": 15840
    },
    {
      "bufferView": 2,
      "componentType": 5123,
      "count": 150,
      "type": "SCALAR",
      "byteOffset": 15912
    },
    {
      "bufferView": 2,
      "componentType": 5123,
      "count": 36,
      "type": "SCALAR",
      "byteOffset": 16212
    },
    {
      "bufferView": 2,
      "componentType": 5123,
      "count": 36,
      "type": "SCALAR",
      "byteOffset": 16284
    },
    {
      "bufferView": 2,
      "componentType": 5123,
      "count": 150,
      "type": "SCALAR",
      "byteOffset": 16356
    },
    {
      "bufferView": 2,
      "componentType": 5123,
      "count": 12,
      "type": "SCALAR",
      "byteOffset": 16656
    },
    {
      "bufferView": 2,
      "componentType": 5123,
      "count": 180,
      "type": "SCALAR",
      "byteOffset": 16680
    },
    {
      "bufferView": 2,
      "componentType": 5123,
      "count": 180,
      "type": "SCALAR",
      "byteOffset": 17040
    },
    {
      "bufferView": 2,
      "componentType": 5123,
      "count": 132,
      "type": "SCALAR",
      "byteOffset": 17400
    }
  ],
  "bufferViews": [
    {
      "buffer": 0,
      "byteLength": 37992,
      "target": 34962,
      "byteStride": 12
    },
    {
      "buffer": 0,
      "byteOffset": 37992,
      "byteLength": 37992,
      "target": 34962,
      "byteStride": 12
    },
    {
      "buffer": 0,
      "byteOffset": 75984,
      "byteLength": 17664,
      "target": 34963
    }
  ],
  "buffers": [
    {
      "uri": "data:application/octet-stream;base64,",
      "byteLength": 93648
    }
  ]
}